<?xml version="1.0" encoding="UTF-8" standalone="no"?>
<svg
   version="1.0"
   width="1600pt"
   height="1600pt"
   viewBox="0 0 1600 1600"
   preserveAspectRatio="xMidYMid"
   id="svg12"
   xmlns="http://www.w3.org/2000/svg"
   xmlns:svg="http://www.w3.org/2000/svg">
  <defs
     id="defs12" />
  <metadata
     id="metadata1">
Created by potrace 1.16, written by Peter Selinger 2001-2019
</metadata>
  <g
     transform="matrix(0.18747736,0,0,-0.21066008,-734.06113,2661.4254)"
     fill="#000000"
     stroke="none"
     id="g12">
    <path
       d="m 5727,12114 c -339,-61 -611,-326 -682,-664 -22,-103 -19,-266 5,-368 92,-383 430,-653 820,-654 665,-4 1075,708 740,1283 -76,129 -209,253 -346,322 -89,45 -145,64 -251,82 -103,18 -182,18 -286,-1 z m 307,-260 c 192,-47 361,-213 420,-412 80,-273 -56,-580 -310,-702 -230,-111 -505,-67 -684,110 -311,307 -201,833 207,986 118,45 236,50 367,18 z"
       id="path1" />
    <path
       d="m 7520,11272 c -39,-19 -8,30 -497,-792 -829,-1394 -979,-1643 -987,-1643 -6,0 -112,173 -237,384 -126,211 -239,392 -252,402 -13,10 -41,21 -63,24 -67,8 -95,-21 -209,-212 -183,-306 -378,-635 -559,-940 -98,-165 -197,-331 -221,-370 -160,-264 -368,-621 -377,-646 -8,-24 -7,-40 7,-76 15,-38 25,-49 63,-65 38,-17 51,-19 82,-9 20,6 46,21 57,33 12,13 140,223 286,468 738,1244 850,1430 861,1430 6,0 102,-154 213,-342 202,-342 202,-342 174,-393 -16,-27 -160,-270 -320,-540 -161,-269 -294,-500 -298,-513 -17,-70 47,-147 122,-147 80,0 17,-96 755,1145 317,534 623,1047 877,1475 121,204 298,502 394,663 95,160 178,292 184,292 6,0 110,-168 232,-372 122,-205 294,-494 382,-643 89,-148 161,-276 161,-283 0,-11 -199,-353 -365,-627 -24,-38 -179,-299 -345,-580 -167,-280 -356,-600 -421,-709 -95,-158 -119,-206 -119,-236 0,-108 133,-166 208,-90 15,15 100,151 189,301 89,151 265,447 391,659 126,212 422,709 657,1105 235,396 455,766 489,823 34,56 65,101 71,99 11,-3 55,-76 475,-782 164,-275 523,-880 800,-1345 276,-465 509,-853 518,-863 45,-51 148,-38 190,23 43,63 35,83 -175,435 -105,176 -277,466 -383,645 -106,179 -262,441 -346,582 -85,142 -154,260 -154,263 0,15 233,396 240,393 8,-3 207,-334 1049,-1753 183,-308 342,-570 354,-582 34,-38 81,-48 134,-28 38,15 49,25 65,62 26,58 21,74 -61,213 -75,126 -386,649 -746,1255 -128,215 -325,548 -440,740 -265,447 -262,443 -296,460 -43,23 -103,19 -135,-9 -15,-13 -89,-126 -164,-252 -75,-127 -142,-229 -150,-229 -8,0 -72,98 -145,220 -436,738 -539,905 -563,921 -37,24 -104,24 -137,-1 -15,-11 -134,-200 -270,-428 -133,-225 -247,-413 -253,-419 -13,-13 -18,-5 -239,367 -585,986 -600,1010 -633,1033 -40,27 -73,28 -120,4 z"
       id="path2" />
    <path
       d="m 11939,7136 c -58,-21 -107,-64 -135,-122 -66,-136 16,-292 172,-324 243,-51 405,231 225,392 -27,25 -67,50 -89,56 -51,15 -127,15 -173,-2 z m 167,-127 c 34,-32 32,-74 -6,-109 -29,-27 -29,-27 -5,-50 27,-26 33,-50 11,-50 -17,0 -89,87 -82,99 3,4 19,11 36,14 21,5 31,14 36,33 10,37 -26,66 -75,62 -36,-3 -36,-3 -41,-102 -3,-67 -9,-101 -17,-104 -10,-3 -13,24 -13,111 0,62 3,117 8,121 4,5 33,6 65,3 42,-4 66,-12 83,-28 z"
       id="path3" />
    <path
       d="m 7449,6746 c -2,-2 -33,-6 -69,-8 -65,-4 -65,-4 -68,-380 -3,-427 -32,-381 258,-395 296,-13 448,44 519,197 24,50 26,66 26,190 0,156 -14,212 -71,278 -41,48 -135,97 -213,112 -51,9 -373,15 -382,6 z m 371,-194 c 28,-11 53,-30 67,-51 20,-30 23,-46 23,-143 0,-129 -11,-158 -73,-190 -37,-20 -57,-22 -182,-23 -140,0 -140,0 -143,200 -1,110 0,205 2,212 8,21 249,17 306,-5 z"
       id="path4" />
    <path
       d="m 10283,6735 c -101,-28 -178,-85 -216,-160 -41,-83 -48,-307 -12,-407 48,-135 192,-208 410,-208 144,0 260,33 332,94 18,15 47,57 65,94 33,66 33,68 33,207 -1,175 -19,229 -96,299 -80,72 -137,89 -314,93 -109,2 -164,-1 -202,-12 z m 336,-190 c 66,-39 76,-64 76,-183 0,-127 -14,-160 -78,-194 -36,-20 -57,-23 -152,-23 -180,0 -226,36 -233,184 -9,192 44,244 248,239 83,-3 112,-7 139,-23 z"
       id="path5" />
    <path
       d="m 11230,6735 c -84,-24 -141,-63 -167,-115 -50,-100 -39,-197 31,-266 54,-55 114,-72 291,-85 147,-10 185,-23 185,-59 0,-56 -82,-78 -249,-66 -95,6 -239,28 -273,41 -16,7 -18,-2 -18,-92 0,-100 0,-100 83,-112 139,-20 306,-25 397,-12 180,27 260,102 260,248 0,64 -34,130 -85,165 -54,37 -134,56 -288,67 -73,5 -134,14 -142,21 -8,7 -15,26 -15,42 0,24 6,32 38,45 30,13 63,14 177,10 77,-3 168,-13 203,-21 35,-9 67,-14 70,-12 4,2 6,44 4,94 -3,90 -3,90 -60,102 -91,20 -376,23 -442,5 z"
       id="path6" />
    <path
       d="m 8342,6732 c -93,-3 -93,-3 -90,-275 3,-272 3,-272 32,-330 51,-104 146,-153 316,-164 178,-11 324,33 386,114 55,72 64,130 64,404 0,249 0,249 -100,249 -100,0 -100,0 -100,-244 0,-237 -1,-244 -23,-277 -35,-53 -68,-64 -182,-64 -81,0 -106,4 -132,20 -59,35 -63,56 -63,323 0,133 -3,242 -7,244 -5,2 -50,2 -101,0 z"
       id="path7" />
    <path
       d="m 9863,6732 c -92,-3 -92,-3 -214,-148 -122,-145 -122,-145 -183,-142 -61,3 -61,3 -64,146 -3,142 -3,142 -102,142 -100,0 -100,0 -100,-375 0,-375 0,-375 100,-375 99,0 99,0 102,138 3,137 3,137 70,140 66,3 66,3 185,-138 118,-140 118,-140 216,-140 95,0 97,0 97,24 0,16 -45,77 -136,185 -75,89 -134,167 -131,174 3,7 64,82 136,169 117,140 148,190 124,200 -5,2 -49,2 -100,0 z"
       id="path8" />
    <path
       d="m 4440,6355 c 0,-375 0,-375 100,-375 100,0 100,0 100,211 0,164 3,210 13,207 6,-3 47,-54 90,-114 113,-160 103,-151 164,-145 52,6 52,6 142,133 50,70 96,130 101,133 7,4 10,-69 10,-210 0,-216 0,-216 100,-213 101,3 101,3 101,373 0,370 0,370 -100,373 -100,3 -100,3 -226,-183 -70,-102 -131,-185 -136,-183 -9,3 -238,333 -246,356 -4,8 -35,12 -109,12 -104,0 -104,0 -104,-375 z"
       id="path9" />
    <path
       d="m 5517,6358 c 2,-373 2,-373 358,-376 356,-2 356,-2 353,88 -3,91 -3,91 -253,93 -250,2 -250,2 -253,50 -3,47 -3,47 197,47 201,0 201,0 201,90 0,90 0,90 -197,92 -198,3 -198,3 -201,56 -3,52 -3,52 252,52 256,0 256,0 256,90 0,90 0,90 -357,90 -358,0 -358,0 -356,-372 z"
       id="path10" />
    <path
       d="m 6360,6355 c 0,-375 0,-375 105,-375 105,0 105,0 105,230 0,127 3,230 8,230 7,-1 350,-418 365,-446 6,-11 32,-14 112,-14 105,0 105,0 105,375 0,375 0,375 -105,375 -105,0 -105,0 -107,-232 l -3,-233 -190,233 c -189,232 -189,232 -292,232 -103,0 -103,0 -103,-375 z"
       id="path11" />
    <path
       d="m 5330,5621 c -23,-4 -39,-15 -50,-33 -13,-25 -13,-31 0,-55 16,-28 16,-28 2720,-28 2704,0 2704,0 2720,28 13,24 13,30 0,54 -10,17 -28,30 -45,34 -39,8 -5299,8 -5345,0 z"
       id="path12" />
  </g>
</svg>
