<svg width="1165" height="441" viewBox="0 0 1165 441" xmlns="http://www.w3.org/2000/svg">
  <g fill="#FFFFFF">
    <path d="M265.5 105.5C265.5 119.859 253.859 131.5 239.5 131.5C225.141 131.5 213.5 119.859 213.5 105.5C213.5 91.141 225.141 79.5 239.5 79.5C253.859 79.5 265.5 91.141 265.5 105.5Z"/>
    <path d="M0 439.5L0 0H142.5C221.5 0 278.5 45.5 278.5 119.5C278.5 176.167 245.833 217.333 187.5 243C249.5 263.833 279.5 303.833 279.5 363.5C279.5 439.5 221.167 439.5 142.5 439.5H0ZM107.5 180.5C152.833 180.5 180.5 153.167 180.5 120C180.5 86.8333 152.833 58.5 107.5 58.5H58.5V180.5H107.5ZM121 381.5C170.5 381.5 201.5 353.167 201.5 317C201.5 280.833 170.5 251.5 121 251.5H58.5V381.5H121Z"/>
    <path d="M403 439.5V0H465.5V439.5H403Z"/>
    <path d="M598.5 439.5L535.5 304.5H527.5V439.5H465.5V0H580C663.333 0 716.5 46.8333 716.5 120C716.5 178.167 687.5 217 632 239L735 439.5H667.5L598.5 304.5ZM527.5 245H574.5C618.167 245 645.5 218.833 645.5 184C645.5 147.5 618.167 120.5 574.5 120.5H527.5V245Z"/>
    <path d="M811 439.5H748.5V0H811V439.5Z"/>
    <path d="M916 439.5L833 0H902.5L952.5 297H956.5L1007 0H1076.5L993.5 439.5H916Z"/>
    <path d="M1165 439.5H1102V0H1165V439.5Z"/>
  </g>
</svg>
